{
  "accessors": [
    {
      "bufferView": 2,
      "componentType": 5126,
      "count": 1713,
      "max": [
        16.071977615356445,
        160.63894653320313,
        16.043071746826172
      ],
      "min": [
        -11.239058494567871,
        135.25221252441406,
        -15.990900993347168
      ],
      "type": "VEC3"
    },
    {
      "bufferView": 2,
      "byteOffset": 20556,
      "componentType": 5126,
      "count": 1713,
      "max": [
        0.9999048113822937,
        0.9385777711868286,
        0.9999731183052063
      ],
      "min": [
        -0.973456621170044,
        -0.8052529692649841,
        -0.9998995065689087
      ],
      "type": "VEC3"
    },
    {
      "bufferView": 3,
      "componentType": 5126,
      "count": 1713,
      "max": [
        0.9088506102561951,
        0.8333365321159363,
        0.999976634979248,
        1.0
      ],
      "min": [
        -0.9978742003440857,
        -0.9841082692146301,
        -0.9999642372131348,
        -1.0
      ],
      "type": "VEC4"
    },
    {
      "bufferView": 1,
      "componentType": 5126,
      "count": 1713,
      "max": [
        0.9496319890022278,
        0.621055006980896
      ],
      "min": [
        0.04903699830174446,
        0.3750309944152832
      ],
      "type": "VEC2"
    },
    {
      "bufferView": 0,
      "componentType": 5125,
      "count": 8892,
      "type": "SCALAR"
    }
  ],
  "asset": {
    "extras": {
      "author": "3dia (https://sketchfab.com/3dia)",
      "license": "SKETCHFAB Standard (https://sketchfab.com/licenses)",
      "source": "https://sketchfab.com/3d-models/female-halter-neck-black-bikini-top-78742ffe18a04114989addca6e699202",
      "title": "Female Halter Neck Black Bikini Top"
    },
    "generator": "Sketchfab-13.77.0",
    "version": "2.0"
  },
  "bufferViews": [
    {
      "buffer": 0,
      "byteLength": 35568,
      "name": "floatBufferViews",
      "target": 34963
    },
    {
      "buffer": 0,
      "byteLength": 13704,
      "byteOffset": 35568,
      "byteStride": 8,
      "name": "floatBufferViews",
      "target": 34962
    },
    {
      "buffer": 0,
      "byteLength": 41112,
      "byteOffset": 49272,
      "byteStride": 12,
      "name": "floatBufferViews",
      "target": 34962
    },
    {
      "buffer": 0,
      "byteLength": 27408,
      "byteOffset": 90384,
      "byteStride": 16,
      "name": "floatBufferViews",
      "target": 34962
    }
  ],
  "buffers": [
    {
      "byteLength": 117792,
      "uri": "scene.bin"
    }
  ],
  "images": [
    {
      "uri": "textures/Fabric_baseColor.jpeg"
    },
    {
      "uri": "textures/Fabric_metallicRoughness.png"
    },
    {
      "uri": "textures/Fabric_normal.jpeg"
    }
  ],
  "materials": [
    {
      "doubleSided": true,
      "name": "Fabric",
      "normalTexture": {
        "index": 2,
        "scale": 0.5965986009054446
      },
      "occlusionTexture": {
        "index": 1
      },
      "pbrMetallicRoughness": {
        "baseColorTexture": {
          "index": 0
        },
        "metallicRoughnessTexture": {
          "index": 1
        },
        "roughnessFactor": 0.5084468287399964
      }
    }
  ],
  "meshes": [
    {
      "name": "Bikin_Top_Fabric_0",
      "primitives": [
        {
          "attributes": {
            "NORMAL": 1,
            "POSITION": 0,
            "TANGENT": 2,
            "TEXCOORD_0": 3
          },
          "indices": 4,
          "material": 0,
          "mode": 4
        }
      ]
    }
  ],
  "nodes": [
    {
      "children": [
        1
      ],
      "matrix": [
        2.534158229827881,
        0.0,
        0.0,
        0.0,
        0.0,
        5.626961629596485e-16,
        -2.534158229827881,
        0.0,
        0.0,
        2.534158229827881,
        5.626961629596485e-16,
        0.0,
        0.0,
        0.0,
        0.0,
        1.0
      ],
      "name": "Sketchfab_model"
    },
    {
      "children": [
        2
      ],
      "matrix": [
        0.009999999776482582,
        0.0,
        0.0,
        0.0,
        0.0,
        0.0,
        0.009999999776482582,
        0.0,
        0.0,
        -0.009999999776482582,
        0.0,
        0.0,
        0.0,
        0.0,
        0.0,
        1.0
      ],
      "name": "5096371176c94214ba5c5660d7582a27.fbx"
    },
    {
      "children": [
        3
      ],
      "name": "RootNode"
    },
    {
      "children": [
        4
      ],
      "name": "Bikin_Top"
    },
    {
      "mesh": 0,
      "name": "Bikin_Top_Fabric_0"
    }
  ],
  "samplers": [
    {
      "magFilter": 9729,
      "minFilter": 9987,
      "wrapS": 10497,
      "wrapT": 10497
    }
  ],
  "scene": 0,
  "scenes": [
    {
      "name": "Sketchfab_Scene",
      "nodes": [
        0
      ]
    }
  ],
  "textures": [
    {
      "sampler": 0,
      "source": 0
    },
    {
      "sampler": 0,
      "source": 1
    },
    {
      "sampler": 0,
      "source": 2
    }
  ]
}
