<svg xmlns="http://www.w3.org/2000/svg" xml:space="preserve" fill-rule="evenodd" stroke-linejoin="round" stroke-miterlimit="2" clip-rule="evenodd" viewBox="0 0 14044 9934">
  <path fill="#fff" fill-rule="nonzero" d="M10200.73 2755.045c-772.92-753.084-1847.826-1220.598-3037.643-1220.598-1159.038 0-2209.32 443.916-2977.11 1163.142C4841.593 1254.69 6343.314 245.108 8091.618 245.108c1194.263 0 2273.272 471.618 3046.534 1229.831l-937.422 1280.106"/>
    <path fill="#fff" fill-rule="nonzero" d="M7163.087 9687.724c-2351.591 0-4257.899-1825.253-4257.899-4076.638 0-1141.596 490.77-2173.067 1280.79-2913.497-226.062 497.952-352.26 1046.861-352.26 1624.5 0 2251.384 1906.307 4076.637 4257.898 4076.637 1159.38 0 2209.661-443.915 2977.45-1163.483-655.613 1443.24-2157.334 2452.48-3905.98 2452.48"/>
</svg>