<?xml version="1.0" encoding="UTF-8" standalone="no"?>
<!DOCTYPE svg PUBLIC "-//W3C//DTD SVG 1.1//EN" "http://www.w3.org/Graphics/SVG/1.1/DTD/svg11.dtd">
<svg width="100%" height="100%" viewBox="0 0 14044 9934" version="1.1" xmlns="http://www.w3.org/2000/svg" xmlns:xlink="http://www.w3.org/1999/xlink" xml:space="preserve" xmlns:serif="http://www.serif.com/" style="fill-rule:evenodd;clip-rule:evenodd;stroke-linejoin:round;stroke-miterlimit:2;">
    <g transform="matrix(82.0799,0,0,82.0799,3878.5,187.82)">
        <g transform="matrix(4.16667,0,0,4.16667,-11.8581,-2.21455)">
            <path d="M21.332,8.038C19.072,5.836 15.929,4.469 12.45,4.469C9.061,4.469 5.99,5.767 3.745,7.87C5.662,3.651 10.053,0.699 15.165,0.699C18.657,0.699 21.812,2.078 24.073,4.295L21.332,8.038" style="fill-rule:nonzero;"/>
        </g>
        <g transform="matrix(4.16667,0,0,4.16667,-11.8581,-2.21455)">
            <path d="M12.45,28.309C5.574,28.309 0,22.972 0,16.389C0,13.051 1.435,10.035 3.745,7.87C3.084,9.326 2.715,10.931 2.715,12.62C2.715,19.203 8.289,24.54 15.165,24.54C18.555,24.54 21.626,23.242 23.871,21.138C21.954,25.358 17.563,28.309 12.45,28.309" style="fill-rule:nonzero;"/>
        </g>
    </g>
</svg>
