{
  "accessors": [
    {
      "bufferView": 2,
      "componentType": 5126,
      "count": 2380,
      "max": [
        80.61160278320313,
        123.52825164794922,
        1705.1416015625
      ],
      "min": [
        -80.61160278320313,
        -78.42787170410156,
        1471.7222900390625
      ],
      "type": "VEC3"
    },
    {
      "bufferView": 2,
      "byteOffset": 28560,
      "componentType": 5126,
      "count": 2380,
      "max": [
        0.999809741973877,
        0.9996649026870728,
        0.9978629946708679
      ],
      "min": [
        -0.999809741973877,
        -0.9985049962997437,
        -0.9989789128303528
      ],
      "type": "VEC3"
    },
    {
      "bufferView": 0,
      "componentType": 5125,
      "count": 14142,
      "type": "SCALAR"
    },
    {
      "bufferView": 2,
      "byteOffset": 57120,
      "componentType": 5126,
      "count": 2967,
      "max": [
        210.63088989257813,
        148.7939453125,
        1445.5457763671875
      ],
      "min": [
        -210.38633728027344,
        -109.27706146240234,
        991.2955932617188
      ],
      "type": "VEC3"
    },
    {
      "bufferView": 2,
      "byteOffset": 92724,
      "componentType": 5126,
      "count": 2967,
      "max": [
        0.9999188184738159,
        0.9999911189079285,
        0.995221734046936
      ],
      "min": [
        -0.9993489980697632,
        -0.9998883605003357,
        -0.9731584191322327
      ],
      "type": "VEC3"
    },
    {
      "bufferView": 3,
      "componentType": 5126,
      "count": 2967,
      "max": [
        0.9999997615814209,
        0.9998421669006348,
        0.8412004709243774,
        1.0
      ],
      "min": [
        -1.0,
        -0.999587893486023,
        -0.7972951531410217,
        -1.0
      ],
      "type": "VEC4"
    },
    {
      "bufferView": 1,
      "componentType": 5126,
      "count": 2967,
      "max": [
        0.9887139797210693,
        0.9829049706459045
      ],
      "min": [
        0.005042215809226036,
        0.00507081113755703
      ],
      "type": "VEC2"
    },
    {
      "bufferView": 0,
      "byteOffset": 56568,
      "componentType": 5125,
      "count": 15900,
      "type": "SCALAR"
    },
    {
      "bufferView": 2,
      "byteOffset": 128328,
      "componentType": 5126,
      "count": 7864,
      "max": [
        263.0724792480469,
        178.7721405029297,
        1495.7445068359375
      ],
      "min": [
        -262.0298767089844,
        -105.05895233154297,
        -0.6166864037513733
      ],
      "type": "VEC3"
    },
    {
      "bufferView": 2,
      "byteOffset": 222696,
      "componentType": 5126,
      "count": 7864,
      "max": [
        0.9999839067459106,
        0.9999300241470337,
        0.9832249879837036
      ],
      "min": [
        -0.9999337196350098,
        -0.9999634027481079,
        -0.9999971389770508
      ],
      "type": "VEC3"
    },
    {
      "bufferView": 0,
      "byteOffset": 120168,
      "componentType": 5125,
      "count": 47118,
      "type": "SCALAR"
    },
    {
      "bufferView": 2,
      "byteOffset": 317064,
      "componentType": 5126,
      "count": 1278,
      "max": [
        205.4702911376953,
        187.0054473876953,
        1028.142333984375
      ],
      "min": [
        -205.32925415039063,
        -76.06917572021484,
        777.8263549804688
      ],
      "type": "VEC3"
    },
    {
      "bufferView": 2,
      "byteOffset": 332400,
      "componentType": 5126,
      "count": 1278,
      "max": [
        0.9935070276260376,
        0.9959303736686707,
        0.7280029654502869
      ],
      "min": [
        -0.9947843551635742,
        -0.9999847412109375,
        -0.9990905523300171
      ],
      "type": "VEC3"
    },
    {
      "bufferView": 3,
      "byteOffset": 47472,
      "componentType": 5126,
      "count": 1278,
      "max": [
        0.9998530149459839,
        0.9997470378875732,
        0.17670579254627228,
        1.0
      ],
      "min": [
        -0.9999880790710449,
        -0.9996610283851624,
        -0.5803505182266235,
        -1.0
      ],
      "type": "VEC4"
    },
    {
      "bufferView": 1,
      "byteOffset": 23736,
      "componentType": 5126,
      "count": 1278,
      "max": [
        0.9725435376167297,
        0.9949292540550232
      ],
      "min": [
        0.0098548773676157,
        0.48152440786361694
      ],
      "type": "VEC2"
    },
    {
      "bufferView": 0,
      "byteOffset": 308640,
      "componentType": 5125,
      "count": 6246,
      "type": "SCALAR"
    }
  ],
  "asset": {
    "extras": {
      "author": "polyfarm (https://sketchfab.com/polyfarm)",
      "license": "SKETCHFAB Standard (https://sketchfab.com/licenses)",
      "source": "https://sketchfab.com/3d-models/female-sportswear-2-260712ec2e4d46b39b65d1e0a5a01555",
      "title": "Female Sportswear 2"
    },
    "generator": "Sketchfab-12.67.0",
    "version": "2.0"
  },
  "bufferViews": [
    {
      "buffer": 0,
      "byteLength": 333624,
      "name": "floatBufferViews",
      "target": 34963
    },
    {
      "buffer": 0,
      "byteLength": 33960,
      "byteOffset": 333624,
      "byteStride": 8,
      "name": "floatBufferViews",
      "target": 34962
    },
    {
      "buffer": 0,
      "byteLength": 347736,
      "byteOffset": 367584,
      "byteStride": 12,
      "name": "floatBufferViews",
      "target": 34962
    },
    {
      "buffer": 0,
      "byteLength": 67920,
      "byteOffset": 715320,
      "byteStride": 16,
      "name": "floatBufferViews",
      "target": 34962
    }
  ],
  "buffers": [
    {
      "byteLength": 783240,
      "uri": "scene.bin"
    }
  ],
  "images": [
    {
      "uri": "textures/Sportswear2_baseColor.jpeg"
    },
    {
      "uri": "textures/Sportswear2_metallicRoughness.png"
    },
    {
      "uri": "textures/Sportswear2_normal.png"
    }
  ],
  "materials": [
    {
      "doubleSided": true,
      "name": "Mannequin",
      "pbrMetallicRoughness": {
        "baseColorFactor": [
          0.0,
          0.0,
          0.0,
          1.0
        ],
        "metallicFactor": 0.0,
        "roughnessFactor": 0.45
      }
    },
    {
      "doubleSided": true,
      "name": "Sportswear2",
      "normalTexture": {
        "index": 2
      },
      "occlusionTexture": {
        "index": 1
      },
      "pbrMetallicRoughness": {
        "baseColorTexture": {
          "index": 0
        },
        "metallicRoughnessTexture": {
          "index": 1
        }
      }
    }
  ],
  "meshes": [
    {
      "name": "1_Head_Mannequin_0",
      "primitives": [
        {
          "attributes": {
            "NORMAL": 1,
            "POSITION": 0
          },
          "indices": 2,
          "material": 0,
          "mode": 4
        }
      ]
    },
    {
      "name": "Tshirt_low_Sportswear2_0",
      "primitives": [
        {
          "attributes": {
            "NORMAL": 4,
            "POSITION": 3,
            "TANGENT": 5,
            "TEXCOORD_0": 6
          },
          "indices": 7,
          "material": 1,
          "mode": 4
        }
      ]
    },
    {
      "name": "1_Body_Mannequin_0",
      "primitives": [
        {
          "attributes": {
            "NORMAL": 9,
            "POSITION": 8
          },
          "indices": 10,
          "material": 0,
          "mode": 4
        }
      ]
    },
    {
      "name": "Shorts_low_Sportswear2_0",
      "primitives": [
        {
          "attributes": {
            "NORMAL": 12,
            "POSITION": 11,
            "TANGENT": 13,
            "TEXCOORD_0": 14
          },
          "indices": 15,
          "material": 1,
          "mode": 4
        }
      ]
    }
  ],
  "nodes": [
    {
      "children": [
        1
      ],
      "matrix": [
        1.0,
        0.0,
        0.0,
        0.0,
        0.0,
        2.220446049250313e-16,
        -1.0,
        0.0,
        0.0,
        1.0,
        2.220446049250313e-16,
        0.0,
        0.0,
        0.0,
        0.0,
        1.0
      ],
      "name": "Sketchfab_model"
    },
    {
      "children": [
        2
      ],
      "matrix": [
        1.0,
        0.0,
        0.0,
        0.0,
        0.0,
        0.0,
        1.0,
        0.0,
        0.0,
        -1.0,
        0.0,
        0.0,
        0.0,
        0.0,
        0.0,
        1.0
      ],
      "name": "Sportswear2.FBX"
    },
    {
      "children": [
        3,
        6,
        9,
        12
      ],
      "name": "RootNode"
    },
    {
      "children": [
        4
      ],
      "matrix": [
        1.0,
        0.0,
        0.0,
        0.0,
        0.0,
        2.220446049250313e-16,
        -1.0,
        0.0,
        0.0,
        1.0,
        2.220446049250313e-16,
        0.0,
        0.0,
        1587.954345703125,
        -20.534088134765625,
        1.0
      ],
      "name": "1_Head"
    },
    {
      "children": [
        5
      ],
      "matrix": [
        1.0,
        0.0,
        -0.0,
        0.0,
        0.0,
        1.0,
        0.0,
        0.0,
        0.0,
        0.0,
        1.0,
        0.0,
        -8.812656915324624e-08,
        -22.550189971923828,
        -1588.431884765625,
        1.0
      ],
      "name": "Object_4"
    },
    {
      "mesh": 0,
      "name": "1_Head_Mannequin_0"
    },
    {
      "children": [
        7
      ],
      "matrix": [
        1.0,
        0.0,
        0.0,
        0.0,
        0.0,
        2.220446049250313e-16,
        -1.0,
        0.0,
        0.0,
        1.0,
        2.220446049250313e-16,
        0.0,
        0.12227630615234375,
        1218.420654296875,
        -19.758441925048828,
        1.0
      ],
      "name": "Tshirt_low"
    },
    {
      "children": [
        8
      ],
      "matrix": [
        1.0,
        0.0,
        -0.0,
        0.0,
        0.0,
        1.0,
        0.0,
        0.0,
        0.0,
        0.0,
        1.0,
        0.0,
        -0.12227630615234375,
        -19.758441925048828,
        -1218.420654296875,
        1.0
      ],
      "name": "Object_7"
    },
    {
      "mesh": 1,
      "name": "Tshirt_low_Sportswear2_0"
    },
    {
      "children": [
        10
      ],
      "matrix": [
        1.0,
        0.0,
        0.0,
        0.0,
        0.0,
        2.220446049250313e-16,
        -1.0,
        0.0,
        0.0,
        1.0,
        2.220446049250313e-16,
        0.0,
        0.52130126953125,
        747.5639038085938,
        -36.85659408569336,
        1.0
      ],
      "name": "1_Body"
    },
    {
      "children": [
        11
      ],
      "matrix": [
        1.0,
        0.0,
        -0.0,
        0.0,
        0.0,
        1.0,
        0.0,
        0.0,
        0.0,
        0.0,
        1.0,
        0.0,
        -0.52130126953125,
        -36.85659408569336,
        -747.5639038085938,
        1.0
      ],
      "name": "Object_10"
    },
    {
      "mesh": 2,
      "name": "1_Body_Mannequin_0"
    },
    {
      "children": [
        13
      ],
      "matrix": [
        1.0,
        0.0,
        0.0,
        0.0,
        0.0,
        2.220446049250313e-16,
        -1.0,
        0.0,
        0.0,
        1.0,
        2.220446049250313e-16,
        0.0,
        0.07051849365234375,
        902.984375,
        -55.468135833740234,
        1.0
      ],
      "name": "Shorts_low"
    },
    {
      "children": [
        14
      ],
      "matrix": [
        1.0,
        0.0,
        -0.0,
        0.0,
        0.0,
        1.0,
        0.0,
        0.0,
        0.0,
        0.0,
        1.0,
        0.0,
        -0.07051849365234375,
        -55.468135833740234,
        -902.984375,
        1.0
      ],
      "name": "Object_13"
    },
    {
      "mesh": 3,
      "name": "Shorts_low_Sportswear2_0"
    }
  ],
  "samplers": [
    {
      "magFilter": 9729,
      "minFilter": 9987,
      "wrapS": 10497,
      "wrapT": 10497
    }
  ],
  "scene": 0,
  "scenes": [
    {
      "name": "Sketchfab_Scene",
      "nodes": [
        0
      ]
    }
  ],
  "textures": [
    {
      "sampler": 0,
      "source": 0
    },
    {
      "sampler": 0,
      "source": 1
    },
    {
      "sampler": 0,
      "source": 2
    }
  ]
}
