{
  "accessors": [
    {
      "bufferView": 2,
      "componentType": 5126,
      "count": 1581,
      "max": [
        17.448974609375,
        161.2996826171875,
        16.524017333984375
      ],
      "min": [
        -10.834268569946289,
        124.9180908203125,
        -16.067169189453125
      ],
      "type": "VEC3"
    },
    {
      "bufferView": 2,
      "byteOffset": 18972,
      "componentType": 5126,
      "count": 1581,
      "max": [
        0.9999953508377075,
        0.9874014854431152,
        0.9995504021644592
      ],
      "min": [
        -0.9998623132705688,
        -0.98405522108078,
        -0.9999356269836426
      ],
      "type": "VEC3"
    },
    {
      "bufferView": 3,
      "componentType": 5126,
      "count": 1581,
      "max": [
        0.999373733997345,
        0.9931885004043579,
        0.9983699321746826,
        1.0
      ],
      "min": [
        -0.9999814033508301,
        -0.9696027040481567,
        -0.999984622001648,
        -1.0
      ],
      "type": "VEC4"
    },
    {
      "bufferView": 1,
      "componentType": 5126,
      "count": 1581,
      "max": [
        0.9860619902610779,
        0.9858049750328064
      ],
      "min": [
        0.0029329999815672636,
        0.0029329999815672636
      ],
      "type": "VEC2"
    },
    {
      "bufferView": 0,
      "componentType": 5125,
      "count": 6951,
      "type": "SCALAR"
    }
  ],
  "asset": {
    "extras": {
      "author": "3dia (https://sketchfab.com/3dia)",
      "license": "SKETCHFAB Standard (https://sketchfab.com/licenses)",
      "source": "https://sketchfab.com/3d-models/female-over-bikini-twin-strap-top-abea90d38c6a4e28a31abd3f436f2149",
      "title": "Female Over Bikini Twin Strap Top"
    },
    "generator": "Sketchfab-12.68.0",
    "version": "2.0"
  },
  "bufferViews": [
    {
      "buffer": 0,
      "byteLength": 27804,
      "name": "floatBufferViews",
      "target": 34963
    },
    {
      "buffer": 0,
      "byteLength": 12648,
      "byteOffset": 27804,
      "byteStride": 8,
      "name": "floatBufferViews",
      "target": 34962
    },
    {
      "buffer": 0,
      "byteLength": 37944,
      "byteOffset": 40452,
      "byteStride": 12,
      "name": "floatBufferViews",
      "target": 34962
    },
    {
      "buffer": 0,
      "byteLength": 25296,
      "byteOffset": 78396,
      "byteStride": 16,
      "name": "floatBufferViews",
      "target": 34962
    }
  ],
  "buffers": [
    {
      "byteLength": 103692,
      "uri": "scene.bin"
    }
  ],
  "images": [
    {
      "uri": "textures/fabric_baseColor.jpeg"
    },
    {
      "uri": "textures/fabric_metallicRoughness.png"
    },
    {
      "uri": "textures/fabric_normal.jpeg"
    }
  ],
  "materials": [
    {
      "doubleSided": true,
      "name": "fabric",
      "normalTexture": {
        "index": 2
      },
      "occlusionTexture": {
        "index": 1
      },
      "pbrMetallicRoughness": {
        "baseColorTexture": {
          "index": 0
        },
        "metallicRoughnessTexture": {
          "index": 1
        },
        "roughnessFactor": 0.8113207547169812
      }
    }
  ],
  "meshes": [
    {
      "name": "Top_fabric_0",
      "primitives": [
        {
          "attributes": {
            "NORMAL": 1,
            "POSITION": 0,
            "TANGENT": 2,
            "TEXCOORD_0": 3
          },
          "indices": 4,
          "material": 0,
          "mode": 4
        }
      ]
    }
  ],
  "nodes": [
    {
      "children": [
        1
      ],
      "matrix": [
        1.6295632123947144,
        0.0,
        0.0,
        0.0,
        0.0,
        3.6183571969654923e-16,
        -1.6295632123947144,
        0.0,
        0.0,
        1.6295632123947144,
        3.6183571969654923e-16,
        0.0,
        0.0,
        0.0,
        0.0,
        1.0
      ],
      "name": "Sketchfab_model"
    },
    {
      "children": [
        2
      ],
      "matrix": [
        0.009999999776482582,
        0.0,
        0.0,
        0.0,
        0.0,
        0.0,
        0.009999999776482582,
        0.0,
        0.0,
        -0.009999999776482582,
        0.0,
        0.0,
        0.0,
        0.0,
        0.0,
        1.0
      ],
      "name": "f4f5653da6fc4b63828cb1306cfc1ec7.fbx"
    },
    {
      "children": [
        3
      ],
      "name": "RootNode"
    },
    {
      "children": [
        4
      ],
      "name": "Top"
    },
    {
      "mesh": 0,
      "name": "Top_fabric_0"
    }
  ],
  "samplers": [
    {
      "magFilter": 9729,
      "minFilter": 9987,
      "wrapS": 10497,
      "wrapT": 10497
    }
  ],
  "scene": 0,
  "scenes": [
    {
      "name": "Sketchfab_Scene",
      "nodes": [
        0
      ]
    }
  ],
  "textures": [
    {
      "sampler": 0,
      "source": 0
    },
    {
      "sampler": 0,
      "source": 1
    },
    {
      "sampler": 0,
      "source": 2
    }
  ]
}
